<svg xmlns="http://www.w3.org/2000/svg" viewBox="0 0 128 128" id="groceries">
  <path d="M42.155 6.787C44.706 9.143 46 12.916 46 18a2 2 0 0 0 4 0c0-6.276-1.742-11.052-5.179-14.195A15.51 15.51 0 0 0 33.822.028a2 2 0 0 0 .347 3.985 11.6 11.6 0 0 1 7.986 2.774zM96.367 26.46a4.867 4.867 0 0 0-.332-3.758c-1.428-2.793-5.272-4.364-7.437-5.052a18.372 18.372 0 0 0-5.43-.936c-4.372 0-5.661 2.486-6.013 3.555a4.867 4.867 0 0 0 .332 3.757c1.428 2.794 5.272 4.365 7.437 5.053a18.373 18.373 0 0 0 5.43.936c4.372 0 5.661-2.486 6.013-3.555zM76.91 35.74c-3.047 0-4.595 1.207-5.373 2.3a11.934 11.934 0 0 1 1.651-.108 10.082 10.082 0 0 1 4.978 1.202 6.913 6.913 0 0 0 6.447 0 12.96 12.96 0 0 1 1.72-.723 20.114 20.114 0 0 0-3.992-1.736 18.372 18.372 0 0 0-5.43-.936z"></path>
  <path d="M101.021 39.134a10.655 10.655 0 0 1 2.783-.998c2.051-12.792 1.433-23.95-2.01-30.684A13.139 13.139 0 0 0 94.231.527 11.336 11.336 0 0 0 90.79 0h-.001C78.306.002 65.859 18.874 58.604 38.068a10.31 10.31 0 0 1 3.163 1.066c.208.102.403.195.597.282C70.16 18.701 81.97 4.001 90.79 4a7.309 7.309 0 0 1 2.229.339c7.55 2.4 9.833 17.034 6.46 35.41a7.667 7.667 0 0 0 1.542-.615zM4 128h32a3.999 3.999 0 0 0 4-4V61.1c0-2.55-9.32-19.31-10.55-22.38A3.99 3.99 0 0 0 32 35v-4a3.999 3.999 0 0 0-4-4H12a3.999 3.999 0 0 0-4 4v4a3.991 3.991 0 0 0 2.58 3.73C9.35 41.88 0 58.56 0 61.1V124a3.999 3.999 0 0 0 4 4zm8-97h16v4H12zm8 42A12 12 0 1 1 8 85a12.01 12.01 0 0 1 12-12zm107.977 25.715.015-.537a2 2 0 0 0-2.128-2.174 53.214 53.214 0 0 0-15.052 3.385c-.802-5.986-4.474-12.457-10.996-19.304l-.357-.379A2.002 2.002 0 0 0 97.954 79a1.913 1.913 0 0 0-1.52.675c-1.76 1.993-9.19 10.897-11.022 21.08a53.339 53.339 0 0 0-18.28-4.75 1.98 1.98 0 0 0-1.585.579 1.918 1.918 0 0 0-.54 1.574l.002.144.012.41c.331 12.339 3.432 20.943 9.215 25.573A17.427 17.427 0 0 0 85.458 128a27.38 27.38 0 0 0 5.255-.54 2 2 0 0 0 1.615-2.002 20.19 20.19 0 0 0-1.534-6.724c-.17-.413-.357-.826-.568-1.254a15.17 15.17 0 0 0-8.72-7.701 2 2 0 1 0-1.299 3.783 11.087 11.087 0 0 1 6.441 5.708c.163.328.312.656.452.997a16.704 16.704 0 0 1 1.029 3.56c-4.637.572-8.463-.319-11.393-2.664-4.585-3.672-7.158-10.717-7.657-20.952 6.128.752 21.887 3.829 25.54 15.703a25.41 25.41 0 0 0-.165 10.374 2 2 0 1 0 3.94-.69c-1.045-5.974.016-11.034 3.158-15.04 5.85-7.463 17.386-9.703 22.366-10.338-.496 10.299-3.06 17.363-7.63 21.013-2.866 2.288-6.599 3.159-11.11 2.596a16.937 16.937 0 0 1 1.021-3.577 11.163 11.163 0 0 1 6.786-6.695 2 2 0 1 0-1.314-3.777 15.193 15.193 0 0 0-9.171 8.951 20.434 20.434 0 0 0-1.52 6.727 2 2 0 0 0 1.61 2 26.687 26.687 0 0 0 5.198.542 17.11 17.11 0 0 0 10.996-3.642c5.769-4.607 8.861-13.235 9.193-25.643zm-29.574 9.375-.014.02a10.637 10.637 0 0 1 .925-7.21 2 2 0 0 0-3.574-1.797 14.667 14.667 0 0 0-1.529 8.12 25.4 25.4 0 0 0-5.048-4.33c.915-7.9 6.195-15.492 8.857-18.867 5.705 6.277 8.71 12.021 8.964 17.126a26.58 26.58 0 0 0-8.58 6.938z"></path>
  <path d="M78 68v25.83c1.5.39 3.09.87 4.7 1.46a46.96 46.96 0 0 1 3.3-7.56V68a4 4 0 0 0-8 0zm-26 0v34a4 4 0 0 0 8 0V68a4 4 0 0 0-8 0z"></path>
  <path d="M38.334 47.277C42.161 54.106 44 57.546 44 61.098v58.813c.182 1.68.337 3.069.46 4.089H44a8.007 8.007 0 0 1-.067.983c-.01.081-.024.16-.037.24a7.912 7.912 0 0 1-.16.78c-.014.054-.026.108-.042.161a7.944 7.944 0 0 1-.763 1.814l-.011.022h29.6c-.27-.19-.53-.39-.78-.59-.21-.17-.42-.34-.62-.52-4.85-4.19-7.97-10.68-9.34-19.37A7.993 7.993 0 0 1 48 102V68a8 8 0 0 1 16 0v24.81a6.023 6.023 0 0 1 3.39-.8 56.41 56.41 0 0 1 6.61.9V68a8 8 0 0 1 16 0v13.36a56.12 56.12 0 0 1 3.44-4.33 5.993 5.993 0 0 1 9 .01l.28.29c.9.94 1.75 1.88 2.54 2.82l2.73-36a.563.563 0 0 0 0-.13c0-.03.01-.06.01-.09 0-.05-.01-.1-.01-.15a.127.127 0 0 1-.01-.06 2.002 2.002 0 0 0-1.98-1.79 10.169 10.169 0 0 0-4.98 1.2 6.9 6.9 0 0 1-6.45 0 10.933 10.933 0 0 0-9.96 0 6.88 6.88 0 0 1-6.44 0 10.933 10.933 0 0 0-9.96 0 6.88 6.88 0 0 1-6.44 0 10.913 10.913 0 0 0-9.95 0 6.9 6.9 0 0 1-6.45 0 10.09 10.09 0 0 0-4.97-1.2 9.864 9.864 0 0 0-4.47.96l.01.03a252.901 252.901 0 0 0 2.394 4.357zm-3.753-7.759c.278-.112.547-.24.84-.384a10.895 10.895 0 0 1 9.952 0 6.906 6.906 0 0 0 6.443 0 11.006 11.006 0 0 1 2.47-.933 117.505 117.505 0 0 1 10.811-22.424 25.013 25.013 0 0 0-12.56-7.151A28.262 28.262 0 0 1 54 18a6 6 0 0 1-12 0c0-3.906-.854-6.683-2.537-8.254-.218-.036-.331-.285-.504-.412A25.13 25.13 0 0 0 24.102 23H28a8.009 8.009 0 0 1 8 8v4a7.927 7.927 0 0 1-1.419 4.518z"></path>
</svg>
