<svg xmlns="http://www.w3.org/2000/svg" enable-background="new 0 0 64 64" viewBox="0 0 64 64" id="microwave">
  <path d="M48.3 33.2c0 1.5 1 2.7 2.3 3.2V30C49.3 30.4 48.3 31.7 48.3 33.2zM52.7 30v6.4c1.3-.4 2.3-1.7 2.3-3.2C55 31.7 54 30.4 52.7 30zM40.7 18.4H9.2c-.4 0-.6.3-.6.6V45c0 .4.3.6.6.6h31.5c.4 0 .6-.3.6-.6V19C41.3 18.7 41 18.4 40.7 18.4zM22.7 28L11.7 38.9c-.2.2-.5.3-.7.3s-.5-.1-.7-.3c-.4-.4-.4-1.1 0-1.5l10.9-10.9c.4-.4 1.1-.4 1.5 0C23.1 26.9 23.1 27.6 22.7 28zM22.7 22.5L11.7 33.4c-.2.2-.5.3-.7.3s-.5-.1-.7-.3c-.4-.4-.4-1.1 0-1.5l10.9-10.9c.4-.4 1.1-.4 1.5 0S23.1 22.1 22.7 22.5zM39.1 37.6c0 .6-.5 1-1 1-.6 0-1-.5-1-1V26.4c0-.6.5-1 1-1 .6 0 1 .5 1 1V37.6zM48.3 21.8c0 1.5 1 2.7 2.3 3.2v-6.4C49.3 19 48.3 20.3 48.3 21.8z"></path>
  <path d="M58.2,14.2H5.8c-1,0-1.8,0.8-1.8,1.8v31.9c0,1,0.8,1.8,1.8,1.8h52.4c1,0,1.8-0.8,1.8-1.8V16.1C60,15.1,59.2,14.2,58.2,14.2
		z M43.4,45c0,1.5-1.2,2.7-2.7,2.7H9.2c-1.5,0-2.7-1.2-2.7-2.7V19c0-1.5,1.2-2.7,2.7-2.7h31.5c1.5,0,2.7,1.2,2.7,2.7V45z M56.1,47.7
		h-8.8c-0.6,0-1-0.5-1-1s0.5-1,1-1h8.8c0.6,0,1,0.5,1,1S56.6,47.7,56.1,47.7z M56.1,44.8h-8.8c-0.6,0-1-0.5-1-1c0-0.6,0.5-1,1-1h8.8
		c0.6,0,1,0.5,1,1C57.1,44.4,56.6,44.8,56.1,44.8z M56.1,41.7h-8.8c-0.6,0-1-0.5-1-1s0.5-1,1-1h8.8c0.6,0,1,0.5,1,1
		S56.6,41.7,56.1,41.7z M51.7,38.6c-3,0-5.4-2.4-5.4-5.4s2.4-5.4,5.4-5.4s5.4,2.4,5.4,5.4S54.7,38.6,51.7,38.6z M51.7,27.2
		c-3,0-5.4-2.4-5.4-5.4s2.4-5.4,5.4-5.4s5.4,2.4,5.4,5.4S54.7,27.2,51.7,27.2z"></path>
  <path d="M52.7,18.6v6.4c1.3-0.4,2.3-1.7,2.3-3.2C55,20.3,54,19,52.7,18.6z"></path>
</svg>
